<svg id="Layer_2" data-name="Layer 2" xmlns="http://www.w3.org/2000/svg" viewBox="0 0 448.58 760.51"><defs><style>.cls-1{fill:#4f6d7a;}.cls-2{fill:#dd6e42;}</style></defs><title>Logo</title><path class="cls-1" d="M179.76,381.35l-6.12-16.92a71.71,71.71,0,0,1,20.3-4.16S184.65,379.59,179.76,381.35Z" transform="translate(-126.15 -215.78)"/><path class="cls-1" d="M185.82,503.08a72,72,0,0,1-12.18-138.65l6.13,16.92a54,54,0,0,0,9.11,104Z" transform="translate(-126.15 -215.78)"/><path class="cls-1" d="M531.93,353.59l-7.3-16.45a54,54,0,0,0-21.89-103.36,53.43,53.43,0,0,0-24.5,5.86l-8.18-16a72,72,0,1,1,61.87,130Z" transform="translate(-126.15 -215.78)"/><path class="cls-1" d="M502.74,648a72.25,72.25,0,0,1-32.68-7.82l8.18-16a53.43,53.43,0,0,0,24.5,5.86A54,54,0,0,0,525.57,527l7.62-16.3,1,.48A72,72,0,0,1,502.74,648Z" transform="translate(-126.15 -215.78)"/><rect class="cls-1" x="165.27" y="292.26" width="324.58" height="18" transform="translate(-223.72 -46.08) rotate(-25.41)"/><rect class="cls-1" x="176.68" y="362.86" width="4.5" height="18" transform="translate(-268.38 -103.05) rotate(-25.41)"/><polygon class="cls-1" points="398.3 310.75 197.72 216.39 398.28 121.45 405.98 137.72 239.9 216.34 405.96 294.46 398.3 310.75"/><rect class="cls-1" x="316.53" y="397.36" width="18" height="328.85" transform="translate(-447.66 399.96) rotate(-64.68)"/><polygon class="cls-1" points="404.61 293.82 396.25 309.78 401.91 312.49 410.81 296.85 404.61 293.82"/><polygon class="cls-1" points="348.83 406.77 355.36 409.85 345.52 425.15 342.48 423.68 348.92 407.4 348.83 406.77"/><polygon class="cls-1" points="401.12 120.1 395.4 122.81 404.36 138.49 407.42 137.06 401.12 120.1"/><polygon class="cls-1" points="353.88 23 349.54 25.08 343.08 8.22 346.23 6.7 353.88 23"/><path class="cls-1" d="M383.59,276.29c-135.82,64.34-203.73,96.51-222,103.88a34.84,34.84,0,0,0-10.89,6.71c-10.32,9.45-12.15,23.26-13.4,32.67-.93,7-2.21,16.63.84,28.48,5.33,20.77,19.91,32.83,26,37.7,16.11,13,32.87,16.82,39.37,18.43,21.17,5.25,8.49,5.23,119.8,56.13,84.55,38.66,71.52,29.37,92.15,41.05,42.58,24.11,57.49,40.71,85.45,38.54,2.77-.22,35.26-3.28,53.62-31,1.41-2.12,23.72-37,4.19-67.86-7.87-12.41-22.06-7.44-48.59-26.81-8.8-6.42-7.15-6.61-14.24-11.72-24.16-17.43-39.55-12.47-77.91-26.81-3.9-1.46-8.22-3.38-13.87-6.09-6.23-3-14.06-7-24.67-12.34-24.45-12.38-32.06-17.59-31.83-23.46.24-6.43,9.8-10.88,13.4-12.57,29.42-13.74,57.56-30.46,88-41.88,37.41-14.06,59.14-22.44,82.94-41.89,25.54-20.87,30.33-35.57,31.84-44.4,3.77-22.11-7.44-39.69-10.06-43.57-11.33-16.79-30.32-27.06-48.59-27.64-17.73-.56-27.5,8.25-52.77,22.62C430.35,256.93,406.4,265.49,383.59,276.29Z" transform="translate(-126.15 -215.78)"/><path class="cls-2" d="M521.11,810.72l6.12,16.92a71.57,71.57,0,0,1-20.3,4.16S516.23,812.48,521.11,810.72Z" transform="translate(-126.15 -215.78)"/><path class="cls-2" d="M515.06,689a72,72,0,0,1,12.17,138.65l-6.12-16.92a54,54,0,0,0-9.11-104Z" transform="translate(-126.15 -215.78)"/><path class="cls-2" d="M168.94,838.48l7.31,16.45a54,54,0,0,0,21.89,103.36,53.35,53.35,0,0,0,24.49-5.86l8.18,16a72,72,0,1,1-61.87-130Z" transform="translate(-126.15 -215.78)"/><path class="cls-2" d="M198.14,544.11a72.24,72.24,0,0,1,32.67,7.82l-8.18,16a53.35,53.35,0,0,0-24.49-5.86A54,54,0,0,0,175.31,665l-7.63,16.3-1-.48a72,72,0,0,1,31.48-136.75Z" transform="translate(-126.15 -215.78)"/><rect class="cls-2" x="211.02" y="881.81" width="324.58" height="18" transform="translate(-472.27 30.58) rotate(-25.41)"/><rect class="cls-2" x="519.69" y="811.21" width="4.5" height="18" transform="matrix(0.9, -0.43, 0.43, 0.9, -427.56, 87.47)"/><polygon class="cls-2" points="50.28 449.77 250.87 544.13 50.3 639.06 42.6 622.79 208.69 544.18 42.62 466.06 50.28 449.77"/><rect class="cls-2" x="366.35" y="465.85" width="18" height="328.85" transform="translate(-481.06 484.19) rotate(-64.68)"/><polygon class="cls-2" points="43.97 466.69 52.33 450.73 46.68 448.02 37.77 463.67 43.97 466.69"/><polygon class="cls-2" points="99.75 353.74 93.23 350.66 103.06 335.36 106.11 336.83 99.67 353.12 99.75 353.74"/><polygon class="cls-2" points="47.47 640.41 53.19 637.7 44.22 622.03 41.16 623.46 47.47 640.41"/><polygon class="cls-2" points="94.71 737.52 99.04 735.43 105.51 752.29 102.36 753.81 94.71 737.52"/><path class="cls-2" d="M317.29,915.78c135.82-64.34,203.73-96.51,222-103.88a34.84,34.84,0,0,0,10.89-6.71c10.33-9.45,12.16-23.26,13.41-32.67.93-7,2.2-16.63-.84-28.48-5.33-20.77-19.92-32.83-26-37.7-16.12-13-32.88-16.82-39.38-18.43-21.16-5.25-8.48-5.23-119.8-56.13-84.54-38.66-71.51-29.37-92.15-41C242.87,566.62,228,550,200,552.19c-2.77.22-35.26,3.28-53.62,31-1.4,2.12-23.72,37-4.18,67.86,7.87,12.41,22.05,7.44,48.59,26.81,8.79,6.42,7.15,6.61,14.24,11.72,24.16,17.43,39.54,12.47,77.91,26.81,8.19,3.06,18.3,8.19,38.54,18.43,24.44,12.38,32.06,17.59,31.83,23.46-.25,6.43-9.8,10.88-13.4,12.57-29.43,13.74-57.57,30.46-88,41.88-37.41,14.06-59.13,22.44-82.94,41.89-25.54,20.87-30.32,35.57-31.83,44.4-3.78,22.11,7.44,39.69,10.05,43.57,11.33,16.79,30.33,27.06,48.59,27.64,17.74.56,27.51-8.25,52.78-22.62C270.53,935.14,294.48,926.58,317.29,915.78Z" transform="translate(-126.15 -215.78)"/><path class="cls-1" d="M364.74,443.27c-2.87,2.78-2.18,8.57-.77,12.26,5.55,14.5,30.16,17.42,44.83,19.15,9.88,1.17,20.3,2.4,21.45-.76,2.36-6.45-36.24-23.85-39.46-25.29C371.82,440.15,366.92,441.14,364.74,443.27Z" transform="translate(-126.15 -215.78)"/><path class="cls-1" d="M369.34,447.48" transform="translate(-126.15 -215.78)"/><path class="cls-2" d="M241,697.67c-2.42,8.68,19.92,21.55,23.75,23.75,2.87,1.65,15.66,8.8,36,11.49,16.1,2.13,31,4.1,35.63-3.06,5.95-9.15-5.75-31.65-23-40.23-9.82-4.88-21-3.51-43.3-.77C252.51,691,242.46,692.36,241,697.67Z" transform="translate(-126.15 -215.78)"/><path class="cls-2" d="M244.82,671.61" transform="translate(-126.15 -215.78)"/></svg>