<?xml version="1.0" encoding="utf-8"?>
<!-- Generator: Adobe Illustrator 24.0.1, SVG Export Plug-In . SVG Version: 6.00 Build 0)  -->
<svg version="1.1" id="Layer_1" xmlns="http://www.w3.org/2000/svg" xmlns:xlink="http://www.w3.org/1999/xlink" x="0px" y="0px"
	 viewBox="0 0 1574.3 215.9" style="enable-background:new 0 0 1574.3 215.9;" xml:space="preserve">
<style type="text/css">
	.st0{fill:#4F6D7A;}
	.st1{fill:#DD6E42;}
	.st2{enable-background:new    ;}
</style>
<title>SubLogo</title>
<g>
	<path class="st0" d="M15.2,47l-1.8-4.8c1.9-0.7,3.8-1.1,5.8-1.2C19.2,41,16.6,46.5,15.2,47z"/>
	<path class="st0" d="M16.9,81.5C5.8,79.6-1.6,69,0.3,57.9c1.3-7.2,6.3-13.2,13.1-15.7l1.8,4.8C7.2,49.8,3.1,58.6,6,66.6
		c1.9,5.2,6.4,9,11.8,9.9L16.9,81.5z"/>
	<path class="st0" d="M115.1,39.1l-2.1-4.7c7.7-3.4,11.2-12.5,7.8-20.2c-2.5-5.5-8-9.1-14-9.1c-2.4,0-4.8,0.6-7,1.7l-2.3-4.5
		c10.1-5.1,22.4-1,27.4,9.1s1,22.4-9.1,27.4l0,0L115.1,39.1L115.1,39.1z"/>
	<path class="st0" d="M107,122.7c-3.2,0-6.4-0.8-9.3-2.2l2.3-4.5c2.2,1.1,4.6,1.7,7,1.7c8.5,0,15.3-6.9,15.4-15.3
		c0-6-3.5-11.4-8.9-13.9l2.2-4.6l0.3,0.1c10.2,4.9,14.4,17.1,9.5,27.3C122,118.2,114.8,122.7,107,122.7L107,122.7z"/>
	
		<rect x="11.1" y="21.6" transform="matrix(0.9033 -0.4291 0.4291 0.9033 -4.8512 26.8917)" class="st0" width="92.2" height="5.1"/>
	
		<rect x="14.4" y="41.7" transform="matrix(0.9033 -0.4291 0.4291 0.9033 -17.5396 10.7207)" class="st0" width="1.3" height="5.1"/>
	<polygon class="st0" points="113.1,88.2 56.2,61.4 113.1,34.4 115.3,39 68.2,61.4 115.3,83.6 	"/>
	
		<rect x="54.1" y="51.5" transform="matrix(0.4277 -0.9039 0.9039 0.4277 -56.3436 107.3908)" class="st0" width="5.1" height="93.4"/>
	<polygon class="st0" points="114.9,83.4 112.6,87.9 114.2,88.7 116.7,84.2 	"/>
	<polygon class="st0" points="99.1,115.5 100.9,116.3 98.1,120.7 97.3,120.3 99.1,115.6 	"/>
	<polygon class="st0" points="113.9,34 112.3,34.8 114.9,39.3 115.7,38.9 	"/>
	<polygon class="st0" points="100.5,6.5 99.3,7.1 97.4,2.3 98.3,1.8 	"/>
	<path class="st0" d="M73.1,17.2c-38.6,18.3-57.9,27.4-63,29.5C9,47.1,7.9,47.8,7,48.6c-2.9,2.7-3.4,6.6-3.8,9.3
		c-1.4,7.2,1.6,14.6,7.6,18.8C14.1,79.2,18,81,22,81.9c6,1.5,2.4,1.5,34,15.9c24,11,20.3,8.3,26.2,11.7
		c12.1,6.8,16.3,11.6,24.3,10.9c0.8-0.1,10-0.9,15.2-8.8c0.4-0.6,6.7-10.5,1.2-19.3c-2.2-3.5-6.3-2.1-13.8-7.6c-2.5-1.8-2-1.9-4-3.3
		c-6.9-5-11.2-3.5-22.1-7.6c-1.1-0.4-2.3-1-3.9-1.7c-1.8-0.9-4-2-7-3.5c-6.9-3.5-9.1-5-9-6.7c0.1-1.8,2.8-3.1,3.8-3.6
		c8.4-3.9,16.4-8.6,25-11.9c10.6-4,16.8-6.4,23.6-11.9c7.3-5.9,8.6-10.1,9-12.6c0.6-4.4-0.4-8.8-2.9-12.4c-3.1-4.6-8.2-7.5-13.8-7.9
		c-5-0.2-7.8,2.3-15,6.4C86.4,11.6,79.6,14.1,73.1,17.2z"/>
	<path class="st1" d="M112.2,168.9l1.7,4.8c-1.9,0.7-3.8,1.1-5.8,1.2C108.2,174.9,110.8,169.4,112.2,168.9z"/>
	<path class="st1" d="M110.4,134.3c11.1,1.9,18.6,12.5,16.7,23.6c-1.3,7.2-6.3,13.2-13.2,15.7l-1.7-4.8c8-2.9,12.1-11.7,9.2-19.6
		c-1.9-5.2-6.4-9-11.8-9.9L110.4,134.3z"/>
	<path class="st1" d="M12,176.8l2.1,4.7c-7.7,3.4-11.2,12.5-7.8,20.2c2.5,5.5,8,9.1,14,9.1c2.4,0,4.8-0.5,6.9-1.6l2.3,4.5
		c-10.3,4.7-22.4,0.3-27.1-10c-4.5-9.8-0.7-21.4,8.8-26.6L12,176.8L12,176.8z"/>
	<path class="st1" d="M20.4,93.2c3.2,0,6.4,0.8,9.3,2.2l-2.3,4.6c-7.5-3.9-16.8-0.9-20.7,6.6s-0.9,16.8,6.6,20.7
		c0.2,0.1,0.4,0.2,0.7,0.3l-2.2,4.6l-0.3-0.1C1.4,127.1-2.9,114.9,2,104.7C5.4,97.6,12.6,93.2,20.4,93.2z"/>
	
		<rect x="24.1" y="189.1" transform="matrix(0.9033 -0.4291 0.4291 0.9033 -75.4487 48.6675)" class="st1" width="92.2" height="5.1"/>
	
		<rect x="111.5" y="168.1" transform="matrix(0.9023 -0.4311 0.4311 0.9023 -62.6258 65.041)" class="st1" width="1.3" height="5.1"/>
	<polygon class="st1" points="14.3,127.7 71.3,154.5 14.3,181.4 12.1,176.8 59.3,154.5 12.1,132.3 	"/>
	
		<rect x="68.2" y="70.9" transform="matrix(0.4277 -0.9039 0.9039 0.4277 -65.8318 131.3203)" class="st1" width="5.1" height="93.4"/>
	<polygon class="st1" points="12.5,132.5 14.9,127.9 13.3,127.2 10.7,131.6 	"/>
	<polygon class="st1" points="28.3,100.4 26.5,99.5 29.3,95.2 30.1,95.6 28.3,100.2 	"/>
	<polygon class="st1" points="13.5,181.8 15.1,181.1 12.6,176.6 11.7,177 	"/>
	<polygon class="st1" points="26.9,209.4 28.1,208.8 30,213.6 29.1,214 	"/>
	<path class="st1" d="M54.3,198.7c38.6-18.3,57.9-27.4,63.1-29.5c1.1-0.4,2.2-1.1,3.1-1.9c2.9-2.7,3.4-6.6,3.8-9.3
		c1.4-7.2-1.6-14.6-7.6-18.8c-3.3-2.6-7.1-4.4-11.2-5.2c-6-1.5-2.4-1.5-34-15.9c-24-11-20.3-8.3-26.2-11.6
		C33.2,99.6,29,94.9,21,95.4c-0.8,0.1-10,0.9-15.2,8.8c-0.4,0.6-6.7,10.5-1.2,19.3c2.2,3.5,6.3,2.1,13.8,7.6c2.5,1.8,2,1.9,4,3.3
		c6.9,5,11.2,3.5,22.1,7.6c2.3,0.9,5.2,2.3,10.9,5.2c7,3.5,9.1,5,9,6.7c-0.1,1.8-2.8,3.1-3.8,3.6c-8.4,3.9-16.3,8.7-25,11.9
		c-10.6,4-16.8,6.4-23.6,11.9c-7.3,5.9-8.6,10.1-9,12.6c-0.6,4.3,0.4,8.8,2.8,12.4c3.1,4.6,8.2,7.5,13.8,7.9c5,0.2,7.8-2.3,15-6.4
		C41,204.2,47.8,201.8,54.3,198.7z"/>
	<path class="st0" d="M67.8,64.5C67,65.3,67.2,67,67.6,68c1.6,4.1,8.6,5,12.7,5.4c2.8,0.3,5.8,0.7,6.1-0.2
		c0.7-1.8-10.3-6.8-11.2-7.2C69.8,63.7,68.4,63.9,67.8,64.5z"/>
	<path class="st0" d="M69.1,65.7"/>
	<path class="st1" d="M32.6,136.8c-0.7,2.5,5.7,6.1,6.7,6.7c3.2,1.7,6.6,2.8,10.2,3.3c4.6,0.6,8.8,1.2,10.1-0.9
		c1.7-2.6-1.6-9-6.5-11.4c-2.8-1.4-6-1-12.3-0.2C35.9,134.9,33,135.3,32.6,136.8z"/>
	<path class="st1" d="M33.7,129.4"/>
</g>
<g class="st2">
	<path class="st0" d="M273.1,57.9c3.3,3.8,5.1,7,5.1,10.4c0,5.2-4.2,9.4-9.8,9.4c-3.7,0-7.1-2.3-9.4-4.7c-4.9-5.1-9.1-7.8-16.7-7.8
		c-10.6,0-16.7,5.4-16.7,13.1c0,5.7,3.1,11,13.6,15l6.8,2.6c27.2,10.3,38.1,20.2,38.1,36.9c0,24-23.9,36-44.1,36
		c-13.8,0-28.2-5.6-36.7-16.4c-1.7-2.1-4.9-6.1-4.9-11.3c0-4.9,3.1-9.9,9.6-9.9c5.2,0,8.7,3.3,11.1,6.6c6.1,7.7,14.3,10.1,20.9,10.1
		c8.5,0,20.2-3.3,20.2-15.2c0-9.1-6.1-13.2-19.5-18.5l-7.3-2.8c-17.9-7-31.2-15.7-31.2-33.4c0-20.7,17.4-33.6,39.2-33.6
		C256.8,44.5,266.2,50.3,273.1,57.9z"/>
	<path class="st0" d="M409.3,157.7c0,5.7-4.9,10.6-11.3,10.6c-5.2,0-9.4-3-11.3-7.5l-8.7-20.5h-49.5l-8.7,20.5
		c-1.9,4.5-6.1,7.5-11.1,7.5c-6.4,0-11.5-4.9-11.5-10.6c0-2.4,0.7-4.7,1.6-6.6l43.2-97.3c2.4-5.9,6.1-8.7,11.3-8.7
		c5.2,0,8.9,2.8,11.5,8.7l43.2,97.3C408.8,153,409.3,155.3,409.3,157.7z M370,121.7l-16.7-39.4l-16.7,39.4H370z"/>
	<path class="st0" d="M493.8,146.9c5.6,0,10.4,4.5,10.4,10.4c0,5.7-4.9,10.3-10.4,10.3h-55c-7.5,0-12.9-5.4-12.9-12.9V57.2
		c0-6.6,5.2-12,11.8-12c6.4,0,11.7,5.4,11.7,12v89.7H493.8z"/>
	<path class="st0" d="M628.6,157.7c0,5.7-4.9,10.6-11.3,10.6c-5.2,0-9.4-3-11.3-7.5l-8.7-20.5h-49.5l-8.7,20.5
		c-1.9,4.5-6.1,7.5-11.1,7.5c-6.4,0-11.5-4.9-11.5-10.6c0-2.4,0.7-4.7,1.6-6.6l43.2-97.3c2.4-5.9,6.1-8.7,11.3-8.7
		c5.2,0,8.9,2.8,11.5,8.7l43.2,97.3C628,153,628.6,155.3,628.6,157.7z M589.2,121.7l-16.7-39.4l-16.7,39.4H589.2z"/>
	<path class="st0" d="M775.9,56.2v100c0,6.4-5.4,12-12.2,12c-6.4,0-11.8-5.6-11.8-12V97.6l-31.2,58.7c-2.3,4.2-6.1,6.6-10.3,6.6
		c-4,0-7.8-2.4-10.1-6.6L669,97.6v58.5c0,6.4-5.2,12-11.7,12c-6.8,0-12.2-5.6-12.2-12v-100c0-7.3,5.6-11,10.8-11
		c4.9,0,9.4,3.7,11.8,7.8l42.7,76.8l42.8-76.8c2.4-4.2,7-7.8,11.8-7.8C770.3,45.2,775.9,48.9,775.9,56.2z"/>
</g>
<g class="st2">
	<path class="st0" d="M904.6,157.7c0,5.7-4.9,10.6-11.3,10.6c-5.2,0-9.4-3-11.3-7.5l-8.7-20.5h-49.5l-8.7,20.5
		c-1.9,4.5-6.1,7.5-11.1,7.5c-6.4,0-11.5-4.9-11.5-10.6c0-2.4,0.7-4.7,1.6-6.6l43.2-97.3c2.4-5.9,6.1-8.7,11.3-8.7s8.9,2.8,11.5,8.7
		l43.2,97.3C904.1,153,904.6,155.3,904.6,157.7z M865.2,121.7l-16.7-39.4l-16.7,39.4H865.2z"/>
</g>
<g class="st2">
	<path class="st1" d="M990.3,56.2c0,5.7-4.7,10.3-10.3,10.3h-24.7v90c0,6.8-5.4,12.4-11.7,12.4c-6.4,0-11.8-5.6-11.8-12.4v-90h-24.6
		c-5.6,0-10.4-4.5-10.4-10.3c0-5.9,4.9-10.4,10.4-10.4H980C985.6,45.7,990.3,50.3,990.3,56.2z"/>
	<path class="st1" d="M1093.9,45.2c6.4,0,11.5,5.4,11.5,11.8v99.3c0,6.4-5.1,11.8-11.5,11.8c-6.6,0-11.8-5.4-11.8-11.8v-38.7h-52.6
		v38.7c0,6.4-5.2,11.8-11.7,11.8c-6.6,0-11.8-5.4-11.8-11.8V57.1c0-6.4,5.2-11.8,11.8-11.8c6.4,0,11.7,5.4,11.7,11.8v40.6h52.6V57.1
		C1082,50.6,1087.3,45.2,1093.9,45.2z"/>
	<path class="st1" d="M1234.1,157.7c0,5.7-4.9,10.6-11.3,10.6c-5.2,0-9.4-3-11.3-7.5l-8.7-20.5h-49.5l-8.7,20.5
		c-1.9,4.5-6.1,7.5-11.1,7.5c-6.4,0-11.5-4.9-11.5-10.6c0-2.4,0.7-4.7,1.6-6.6l43.2-97.3c2.4-5.9,6.1-8.7,11.3-8.7
		c5.2,0,8.9,2.8,11.5,8.7l43.2,97.3C1233.5,153,1234.1,155.3,1234.1,157.7z M1194.7,121.7L1178,82.3l-16.7,39.4H1194.7z"/>
	<path class="st1" d="M1351.6,57.2v100c0,7.5-4.9,11.5-11,11.5c-5.1,0-9.1-2.6-12.2-7l-54-73.5v68.4c0,6.4-5.2,12-11.7,12
		c-6.8,0-12.2-5.6-12.2-12V56.5c0-7.3,4.9-11.3,11.1-11.3c5,0,9.1,2.6,12,6.8l54,73.7V57.2c0-6.4,5.4-12,11.8-12
		C1346.4,45.2,1351.6,50.8,1351.6,57.2z"/>
</g>
<g class="st2">
	<path class="st1" d="M1475.1,158.6c0,5.6-4.7,10.3-10.4,10.3c-3,0-5.7-1.4-7.7-3.5l-42.5-48.1l-18.5,19.2V157
		c0,6.4-5.4,11.8-11.8,11.8s-11.7-5.4-11.7-11.7V56.4c0-6.4,5.2-11.8,11.7-11.8s11.8,5.4,11.8,11.8v48.8l55.4-56.6
		c1.9-2.1,5-4,8.4-4c5.7,0,10.6,4.7,10.6,10.4c0,2.6-1.2,5.2-2.4,6.8l-38.8,40.4l43.4,49.5C1474,153.4,1475.1,156,1475.1,158.6z"/>
</g>
<g class="st2">
	<path class="st1" d="M1556.4,57.9c3.3,3.8,5.1,7,5.1,10.4c0,5.2-4.2,9.4-9.8,9.4c-3.7,0-7.1-2.3-9.4-4.7c-4.9-5.1-9.1-7.8-16.7-7.8
		c-10.6,0-16.7,5.4-16.7,13.1c0,5.7,3.1,11,13.6,15l6.8,2.6c27.2,10.3,38.1,20.2,38.1,36.9c0,24-23.9,36-44.1,36
		c-13.8,0-28.2-5.6-36.7-16.4c-1.7-2.1-4.9-6.1-4.9-11.3c0-4.9,3.1-9.9,9.6-9.9c5.2,0,8.7,3.3,11.1,6.6c6.1,7.7,14.3,10.1,20.9,10.1
		c8.5,0,20.2-3.3,20.2-15.2c0-9.1-6.1-13.2-19.5-18.5l-7.3-2.8c-17.9-7-31.2-15.7-31.2-33.4c0-20.7,17.4-33.6,39.2-33.6
		C1540,44.5,1549.4,50.3,1556.4,57.9z"/>
</g>
</svg>
